<?xml version="1.0" encoding="UTF-8" standalone="no"?>
<!DOCTYPE svg PUBLIC "-//W3C//DTD SVG 1.1//EN" "http://www.w3.org/Graphics/SVG/1.1/DTD/svg11.dtd">
<svg xmlns="http://www.w3.org/2000/svg" version="1.1" viewBox="0.00 0.00 512.00 512.00">
<circle class="ico-fill" cx="206.15" cy="62.31" r="55.05"/>
<path class="ico-fill" d="
  M 176.18 280.97
  Q 212.27 281.09 249.88 280.92
  Q 257.63 280.88 262.27 282.32
  Q 273.10 285.69 279.40 295.49
  Q 281.82 299.24 284.05 307.83
  Q 304.80 387.65 325.20 465.68
  C 334.16 499.92 289.57 519.80 269.88 490.62
  Q 267.44 487.00 264.96 477.46
  Q 246.46 406.34 229.94 342.74
  A 0.71 0.71 0.0 0 0 229.25 342.21
  Q 197.66 342.24 165.89 342.20
  C 153.98 342.19 141.88 343.47 129.94 341.75
  Q 107.27 338.48 96.83 320.19
  Q 91.00 309.98 89.45 298.49
  C 85.75 271.18 85.20 241.42 89.97 214.32
  Q 94.23 190.10 103.50 163.48
  C 111.53 140.43 129.46 122.29 153.99 120.58
  Q 165.96 119.75 174.54 124.86
  Q 178.90 127.46 186.90 136.57
  Q 213.43 166.78 238.61 194.88
  Q 238.94 195.24 239.42 195.13
  Q 277.60 185.77 316.72 176.18
  C 331.23 172.62 344.50 184.71 341.08 199.44
  Q 339.41 206.66 333.45 210.92
  C 328.04 214.79 318.99 215.73 311.86 217.77
  Q 308.25 218.81 304.29 218.80
  Q 268.92 218.78 235.27 218.78
  Q 234.69 218.78 234.30 218.35
  Q 202.93 183.64 172.67 150.08
  C 167.94 144.84 161.70 141.58 154.72 141.25
  C 136.05 140.36 122.98 159.02 130.21 176.30
  Q 131.94 180.43 137.25 186.25
  Q 159.24 210.35 179.52 232.99
  Q 179.93 233.45 179.83 234.05
  C 177.40 249.19 175.84 264.64 175.60 280.37
  Q 175.59 280.97 176.18 280.97
  Z"
/>
<path class="ico-fill" d="
  M 427.15 248.43
  L 485.55 142.58
  A 0.54 0.53 28.3 0 1 486.27 142.37
  L 498.29 148.97
  A 0.45 0.45 0.0 0 1 498.46 149.58
  Q 468.05 204.71 437.90 259.37
  Q 435.57 263.58 430.49 263.58
  Q 387.94 263.59 345.84 263.59
  Q 345.06 263.59 345.65 263.07
  Q 351.87 257.63 353.76 249.52
  Q 353.90 248.96 354.47 248.96
  L 426.26 248.96
  A 1.02 1.01 -75.5 0 0 427.15 248.43
  Z"
/>
<path class="ico-fill" d="
  M 232.81 224.37
  Q 280.41 224.45 326.83 224.39
  Q 332.45 224.39 335.69 225.53
  C 340.60 227.26 345.20 231.34 347.09 236.14
  C 352.52 249.94 343.37 263.56 328.39 263.57
  Q 275.61 263.62 223.49 263.59
  C 217.97 263.59 212.58 261.17 208.89 257.07
  Q 175.32 219.80 140.16 181.02
  C 134.56 174.84 132.15 167.96 134.97 159.82
  C 138.96 148.31 152.18 143.75 162.71 149.17
  Q 165.68 150.70 170.54 156.09
  Q 201.56 190.53 231.77 223.91
  A 1.41 1.40 68.7 0 0 232.81 224.37
  Z"
/>
<path class="ico-fill" d="
  M 0.00 228.76
  L 0.00 226.66
  Q 1.41 222.01 6.34 221.58
  Q 6.88 221.54 6.74 221.01
  C 3.24 207.87 0.77 193.82 1.05 180.77
  C 1.18 175.19 2.06 168.71 5.18 163.93
  C 6.31 162.19 9.58 159.01 11.83 160.63
  Q 14.74 162.72 16.85 165.84
  Q 22.31 173.89 25.80 181.04
  Q 49.80 230.25 64.29 283.36
  Q 66.57 291.70 67.69 301.05
  C 68.05 304.03 68.72 310.43 64.42 310.77
  C 52.86 311.71 40.87 295.15 35.33 286.65
  Q 34.00 284.60 34.86 286.89
  L 61.36 357.49
  A 0.38 0.37 -15.4 0 0 61.77 357.72
  Q 80.64 354.54 100.25 353.66
  Q 141.90 351.79 178.63 354.75
  Q 192.30 355.85 203.98 358.60
  Q 207.63 359.45 210.37 361.47
  C 214.13 364.25 208.19 370.94 205.69 372.80
  Q 201.42 375.96 196.61 378.01
  C 182.34 384.09 164.80 386.88 148.47 387.99
  Q 147.84 388.04 147.85 388.67
  L 147.88 391.77
  Q 147.88 392.42 147.23 392.42
  L 138.03 392.41
  A 0.56 0.55 90.0 0 0 137.48 392.97
  L 137.48 443.58
  A 0.46 0.45 8.8 0 0 137.80 444.01
  L 208.51 465.77
  A 0.79 0.78 -81.5 0 1 209.06 466.52
  L 209.05 474.32
  Q 209.05 474.84 209.49 475.12
  Q 219.16 481.41 215.99 491.99
  Q 214.94 495.48 211.63 498.18
  C 202.45 505.68 189.21 498.80 189.16 487.41
  Q 189.13 479.70 196.33 475.24
  A 0.24 0.24 0.0 0 0 196.28 474.81
  L 137.75 456.81
  A 0.21 0.21 0.0 0 0 137.48 457.01
  L 137.48 474.49
  A 0.90 0.88 15.3 0 0 137.93 475.26
  Q 143.12 478.18 144.65 483.69
  C 147.15 492.66 140.07 501.99 130.44 501.20
  C 116.59 500.07 112.65 482.29 124.67 475.29
  A 1.14 1.14 0.0 0 0 125.24 474.30
  L 125.23 457.41
  Q 125.23 456.77 124.62 456.96
  L 66.39 474.87
  A 0.22 0.22 0.0 0 0 66.35 475.28
  C 77.52 481.47 75.10 497.41 63.33 500.72
  C 53.61 503.46 44.86 495.36 46.06 485.46
  Q 46.84 479.00 53.14 475.25
  Q 53.60 474.98 53.60 474.45
  L 53.58 466.50
  A 0.67 0.66 81.9 0 1 54.05 465.86
  L 124.74 444.11
  Q 125.23 443.96 125.23 443.44
  L 125.23 392.95
  A 0.53 0.53 0.0 0 0 124.70 392.42
  L 115.35 392.42
  Q 114.78 392.42 114.79 391.85
  L 114.81 388.70
  A 0.71 0.71 0.0 0 0 114.15 387.98
  C 98.68 386.87 83.21 384.44 69.69 379.47
  C 64.19 377.45 57.47 374.23 53.76 369.68
  Q 52.13 367.68 49.83 361.58
  Q 24.86 295.16 0.00 228.76
  Z"
/>
<path class="ico-fill" d="
  M 512.00 274.45
  L 512.00 295.63
  L 461.43 295.62
  A 0.43 0.42 0.0 0 0 461.00 296.04
  L 461.00 477.23
  A 0.47 0.47 0.0 0 0 461.47 477.70
  L 512.00 477.68
  L 512.00 498.85
  L 337.32 498.85
  A 0.36 0.35 0.0 0 1 336.96 498.50
  L 336.96 478.02
  A 0.38 0.37 -0.0 0 1 337.34 477.65
  L 422.64 477.65
  A 0.38 0.38 0.0 0 0 423.02 477.27
  L 423.02 296.02
  A 0.37 0.37 0.0 0 0 422.65 295.65
  L 292.02 295.65
  A 0.37 0.37 0.0 0 1 291.65 295.28
  L 291.65 275.04
  Q 291.65 274.49 292.21 274.48
  L 512.00 274.45
  Z"
/>
</svg>
