<?xml version="1.0" encoding="UTF-8" standalone="no"?>
<!DOCTYPE svg PUBLIC "-//W3C//DTD SVG 1.1//EN" "http://www.w3.org/Graphics/SVG/1.1/DTD/svg11.dtd">
<svg xmlns="http://www.w3.org/2000/svg" version="1.1" viewBox="0.00 0.00 512.00 512.00">
<path class="ico-fill" d="
  M 512.00 32.79
  L 512.00 114.83
  Q 511.63 252.32 511.44 389.80
  Q 511.43 400.18 510.50 404.11
  C 507.68 416.08 498.42 425.30 486.50 428.41
  Q 485.91 428.56 485.92 429.17
  C 485.99 436.58 484.12 442.53 476.82 445.77
  Q 473.95 447.05 465.99 447.03
  Q 399.35 446.89 332.89 446.98
  Q 332.66 446.98 332.67 447.21
  L 332.69 456.21
  Q 332.69 456.44 332.93 456.44
  Q 344.00 456.35 355.07 456.49
  C 370.27 456.68 382.25 468.21 382.56 483.42
  Q 382.70 490.59 382.65 498.76
  Q 382.60 508.31 373.65 512.00
  L 137.70 512.00
  Q 130.53 508.94 129.09 502.29
  Q 128.75 500.76 128.74 492.66
  Q 128.73 487.95 128.90 483.04
  C 129.43 468.32 141.02 456.80 155.76 456.51
  Q 166.57 456.30 178.07 456.48
  A 0.69 0.68 0.4 0 0 178.77 455.80
  L 178.76 429.80
  A 0.25 0.25 0.0 0 0 178.51 429.55
  Q 143.31 429.47 108.12 429.54
  Q 105.57 429.55 103.91 428.86
  C 100.02 427.26 98.33 422.81 100.01 419.03
  C 101.56 415.55 104.67 414.51 108.24 414.51
  Q 188.11 414.52 266.68 414.52
  Q 267.23 414.52 267.24 413.96
  Q 267.42 407.36 267.23 400.90
  Q 267.00 393.52 268.58 389.96
  C 272.03 382.11 279.30 380.41 287.29 381.10
  Q 288.00 381.17 288.00 380.45
  L 288.00 368.49
  A 0.37 0.37 0.0 0 0 287.63 368.12
  L 15.69 368.12
  Q 15.01 368.12 15.01 368.80
  Q 14.94 387.33 15.07 396.88
  C 15.21 406.92 23.46 414.57 33.50 414.53
  Q 45.79 414.49 59.05 414.52
  Q 62.33 414.53 63.87 415.15
  C 67.82 416.76 69.63 421.09 67.94 425.01
  C 66.50 428.33 63.47 429.50 60.06 429.52
  Q 44.04 429.62 33.10 429.42
  Q 18.39 429.15 8.85 418.89
  Q 0.82 410.26 0.00 397.72
  L 0.00 32.65
  Q 0.93 19.74 9.34 11.08
  Q 19.12 1.01 34.54 1.01
  Q 255.50 0.99 478.07 1.01
  C 496.59 1.01 510.63 14.28 512.00 32.79
  Z
  M 33.60 16.01
  C 25.90 16.01 19.08 20.93 16.59 28.14
  Q 15.42 31.54 15.45 38.11
  Q 15.56 63.91 15.49 87.61
  A 0.35 0.35 0.0 0 0 15.84 87.96
  L 495.94 87.96
  A 0.51 0.50 -0.0 0 0 496.45 87.46
  Q 496.49 60.35 496.43 34.79
  C 496.40 24.07 488.66 16.01 478.12 16.01
  Q 238.12 15.99 33.60 16.01
  Z
  M 484.68 274.60
  C 481.06 282.64 474.15 284.13 465.75 283.54
  A 0.47 0.47 0.0 0 0 465.24 284.01
  L 465.23 298.75
  Q 465.23 299.37 465.86 299.38
  C 469.15 299.38 472.67 299.12 475.86 300.23
  Q 482.47 302.53 484.92 308.89
  Q 486.09 311.93 485.95 319.05
  Q 485.63 335.77 485.73 352.86
  A 0.27 0.26 90.0 0 0 485.99 353.13
  L 496.11 353.12
  A 0.35 0.35 0.0 0 0 496.46 352.77
  L 496.45 103.46
  A 0.50 0.49 90.0 0 0 495.96 102.96
  L 15.52 102.96
  Q 15.00 102.96 15.00 103.48
  L 15.00 352.75
  A 0.37 0.37 0.0 0 0 15.37 353.12
  L 266.90 353.12
  Q 267.53 353.12 267.53 352.49
  Q 267.57 335.29 267.25 319.62
  Q 267.08 311.63 268.52 308.30
  Q 271.16 302.22 277.89 300.03
  C 280.64 299.13 284.35 299.34 287.31 299.42
  A 0.67 0.66 0.8 0 0 288.00 298.76
  L 288.00 284.23
  Q 288.00 283.61 287.38 283.61
  Q 285.67 283.59 283.96 283.64
  C 276.98 283.86 271.20 280.89 268.46 274.40
  Q 267.00 270.96 267.19 262.13
  Q 267.48 249.17 267.20 236.19
  C 267.03 228.56 268.83 222.59 275.89 219.09
  Q 278.85 217.63 286.49 217.65
  Q 335.91 217.83 381.60 217.70
  C 392.19 217.67 392.18 232.68 381.76 232.69
  Q 330.68 232.73 282.83 232.71
  Q 282.27 232.71 282.27 233.27
  L 282.27 268.26
  A 0.37 0.36 -90.0 0 0 282.63 268.63
  L 470.42 268.63
  A 0.55 0.54 -90.0 0 0 470.96 268.08
  L 470.96 233.28
  Q 470.96 232.70 470.38 232.70
  Q 450.14 232.75 429.37 232.68
  Q 424.00 232.66 421.96 227.82
  C 420.59 224.54 422.07 220.43 425.24 218.78
  Q 427.42 217.65 430.68 217.68
  Q 448.64 217.85 467.97 217.65
  C 475.59 217.56 481.28 219.52 484.71 226.59
  Q 486.17 229.61 486.02 240.18
  Q 485.82 254.03 485.93 268.60
  Q 485.96 271.76 484.68 274.60
  Z
  M 303.30 283.63
  A 0.31 0.31 0.0 0 0 302.99 283.94
  L 302.99 299.06
  A 0.31 0.31 0.0 0 0 303.30 299.37
  L 449.94 299.37
  A 0.31 0.31 0.0 0 0 450.25 299.06
  L 450.25 283.94
  A 0.31 0.31 0.0 0 0 449.94 283.63
  L 303.30 283.63
  Z
  M 470.96 314.76
  A 0.39 0.39 0.0 0 0 470.57 314.37
  L 282.65 314.37
  A 0.39 0.39 0.0 0 0 282.26 314.76
  L 282.26 349.88
  A 0.39 0.39 0.0 0 0 282.65 350.27
  L 470.57 350.27
  A 0.39 0.39 0.0 0 0 470.96 349.88
  L 470.96 314.76
  Z
  M 450.25 365.61
  A 0.34 0.34 0.0 0 0 449.91 365.27
  L 303.33 365.27
  A 0.34 0.34 0.0 0 0 302.99 365.61
  L 302.99 380.67
  A 0.34 0.34 0.0 0 0 303.33 381.01
  L 449.91 381.01
  A 0.34 0.34 0.0 0 0 450.25 380.67
  L 450.25 365.61
  Z
  M 477.36 382.47
  Q 485.77 386.69 485.90 396.17
  Q 486.00 403.94 485.88 412.15
  Q 485.87 412.88 486.50 412.52
  Q 496.26 406.97 496.36 396.22
  Q 496.49 383.15 496.45 368.54
  A 0.43 0.42 89.3 0 0 496.03 368.12
  L 465.81 368.12
  Q 465.24 368.12 465.23 368.69
  L 465.23 380.48
  Q 465.23 381.10 465.85 381.06
  C 469.41 380.83 474.02 380.79 477.36 382.47
  Z
  M 470.96 396.46
  A 0.44 0.44 0.0 0 0 470.52 396.02
  L 282.70 396.02
  A 0.44 0.44 0.0 0 0 282.26 396.46
  L 282.26 431.52
  A 0.44 0.44 0.0 0 0 282.70 431.96
  L 470.52 431.96
  A 0.44 0.44 0.0 0 0 470.96 431.52
  L 470.96 396.46
  Z
  M 277.27 446.06
  C 271.73 444.10 267.52 438.98 267.35 432.80
  Q 267.31 431.48 267.30 430.10
  A 0.59 0.59 0.0 0 0 266.71 429.52
  L 194.25 429.52
  Q 193.77 429.52 193.77 430.00
  L 193.77 456.07
  A 0.35 0.35 0.0 0 0 194.12 456.42
  L 317.41 456.42
  Q 317.67 456.42 317.67 456.16
  L 317.68 447.24
  Q 317.68 446.98 317.42 446.97
  Q 300.82 446.92 283.87 447.00
  Q 280.00 447.02 277.27 446.06
  Z
  M 144.37 497.48
  L 367.09 497.48
  A 0.73 0.73 0.0 0 0 367.82 496.75
  L 367.82 485.10
  A 14.09 13.80 -0.0 0 0 353.73 471.30
  L 157.73 471.30
  A 14.09 13.80 -0.0 0 0 143.64 485.10
  L 143.64 496.75
  A 0.73 0.73 0.0 0 0 144.37 497.48
  Z"
/>
<path class="ico-fill" d="
  M 77.19 51.75
  A 21.92 21.92 0.0 0 1 55.27 73.67
  A 21.92 21.92 0.0 0 1 33.35 51.75
  A 21.92 21.92 0.0 0 1 55.27 29.83
  A 21.92 21.92 0.0 0 1 77.19 51.75
  Z
  M 62.18 51.75
  A 6.91 6.91 0.0 0 0 55.27 44.84
  A 6.91 6.91 0.0 0 0 48.36 51.75
  A 6.91 6.91 0.0 0 0 55.27 58.66
  A 6.91 6.91 0.0 0 0 62.18 51.75
  Z"
/>
<path class="ico-fill" d="
  M 133.16 51.75
  A 21.91 21.91 0.0 0 1 111.25 73.66
  A 21.91 21.91 0.0 0 1 89.34 51.75
  A 21.91 21.91 0.0 0 1 111.25 29.84
  A 21.91 21.91 0.0 0 1 133.16 51.75
  Z
  M 118.15 51.75
  A 6.90 6.90 0.0 0 0 111.25 44.85
  A 6.90 6.90 0.0 0 0 104.35 51.75
  A 6.90 6.90 0.0 0 0 111.25 58.65
  A 6.90 6.90 0.0 0 0 118.15 51.75
  Z"
/>
<path class="ico-fill" d="
  M 189.15 51.75
  A 21.92 21.92 0.0 0 1 167.23 73.67
  A 21.92 21.92 0.0 0 1 145.31 51.75
  A 21.92 21.92 0.0 0 1 167.23 29.83
  A 21.92 21.92 0.0 0 1 189.15 51.75
  Z
  M 174.15 51.75
  A 6.91 6.91 0.0 0 0 167.24 44.84
  A 6.91 6.91 0.0 0 0 160.33 51.75
  A 6.91 6.91 0.0 0 0 167.24 58.66
  A 6.91 6.91 0.0 0 0 174.15 51.75
  Z"
/>
<path class="ico-fill" d="
  M 51.67 158.44
  A 0.40 0.40 0.0 0 0 51.66 159.00
  Q 59.13 166.62 68.20 175.53
  Q 70.59 177.87 71.33 180.05
  C 72.47 183.42 70.78 187.22 67.60 188.83
  C 64.09 190.61 60.53 189.26 58.03 186.71
  Q 47.89 176.33 36.96 165.63
  C 32.61 161.37 31.95 156.87 36.49 152.38
  Q 47.04 141.94 57.64 131.23
  Q 59.43 129.42 61.09 128.61
  C 65.13 126.63 69.86 128.75 71.29 132.95
  C 72.30 135.93 71.22 138.92 69.07 141.06
  Q 59.56 150.57 51.67 158.44
  Z"
/>
<rect class="ico-fill" x="-7.47" y="-32.61" transform="translate(93.14,158.76) rotate(21.5)" width="14.94" height="65.22" rx="7.33"/>
<path class="ico-fill" d="
  M 132.80 158.25
  Q 125.01 150.31 116.71 142.22
  C 113.98 139.56 112.02 136.55 113.52 132.65
  Q 114.83 129.26 118.30 128.20
  C 121.96 127.08 124.63 128.82 127.13 131.33
  Q 137.89 142.14 148.59 152.86
  Q 152.57 156.86 150.87 161.23
  Q 149.97 163.55 146.48 166.92
  Q 137.18 175.92 127.66 185.69
  Q 124.82 188.60 122.56 189.33
  C 119.39 190.35 115.51 188.86 114.01 185.87
  Q 111.42 180.74 115.57 176.54
  Q 123.70 168.33 132.79 159.31
  Q 133.32 158.78 132.80 158.25
  Z"
/>
<rect class="ico-fill" x="-20.27" y="-7.44" transform="translate(185.84,157.26) rotate(-0.1)" width="40.54" height="14.88" rx="7.16"/>
<rect class="ico-fill" x="220.35" y="149.78" width="172.62" height="14.96" rx="7.40"/>
<rect class="ico-fill" x="-34.28" y="-7.47" transform="translate(199.84,190.24) rotate(-0.1)" width="68.56" height="14.94" rx="7.29"/>
<rect class="ico-fill" x="-18.32" y="-7.43" transform="translate(262.70,190.24) rotate(-0.1)" width="36.64" height="14.86" rx="7.12"/>
<rect class="ico-fill" x="-39.32" y="-7.47" transform="translate(329.65,190.24) rotate(0.1)" width="78.64" height="14.94" rx="7.31"/>
<rect class="ico-fill" x="-32.59" y="-7.46" transform="translate(70.25,226.22) rotate(-0.1)" width="65.18" height="14.92" rx="7.28"/>
<rect class="ico-fill" x="115.62" y="218.75" width="103.52" height="14.94" rx="7.35"/>
<rect class="ico-fill" x="294.50" y="243.21" width="50.74" height="14.92" rx="7.23"/>
<rect class="ico-fill" x="-13.14" y="-7.41" transform="translate(369.18,250.67) rotate(0.1)" width="26.28" height="14.82" rx="7.00"/>
<rect class="ico-fill" x="-32.81" y="-7.48" transform="translate(425.91,250.67) rotate(-0.1)" width="65.62" height="14.96" rx="7.29"/>
<rect class="ico-fill" x="37.68" y="250.36" width="36.16" height="14.88" rx="7.13"/>
<rect class="ico-fill" x="85.45" y="250.31" width="79.04" height="14.96" rx="7.32"/>
<rect class="ico-fill" x="-13.85" y="-7.41" transform="translate(190.90,257.80) rotate(0.1)" width="27.70" height="14.82" rx="7.02"/>
<rect class="ico-fill" x="-19.60" y="-7.45" transform="translate(233.47,257.80) rotate(-0.1)" width="39.20" height="14.90" rx="7.16"/>
<rect class="ico-fill" x="-26.73" y="-7.47" transform="translate(64.40,289.17) rotate(0.1)" width="53.46" height="14.94" rx="7.25"/>
<rect class="ico-fill" x="99.38" y="281.70" width="65.20" height="14.96" rx="7.29"/>
<rect class="ico-fill" x="-40.33" y="-7.49" transform="translate(215.75,289.18) rotate(0.1)" width="80.66" height="14.98" rx="7.33"/>
<rect class="ico-fill" x="-25.37" y="-7.45" transform="translate(319.87,332.31) rotate(-0.1)" width="50.74" height="14.90" rx="7.22"/>
<rect class="ico-fill" x="-13.13" y="-7.40" transform="translate(369.20,332.31) rotate(-0.1)" width="26.26" height="14.80" rx="7.00"/>
<rect class="ico-fill" x="393.09" y="324.85" width="65.64" height="14.92" rx="7.28"/>
<rect class="ico-fill" x="294.51" y="406.54" width="50.72" height="14.90" rx="7.22"/>
<rect class="ico-fill" x="-13.13" y="-7.40" transform="translate(369.19,413.99) rotate(0.2)" width="26.26" height="14.80" rx="7.00"/>
<rect class="ico-fill" x="-32.80" y="-7.47" transform="translate(425.91,413.99) rotate(0.1)" width="65.60" height="14.94" rx="7.28"/>
</svg>
