<?xml version="1.0" encoding="UTF-8" standalone="no"?>
<!DOCTYPE svg PUBLIC "-//W3C//DTD SVG 1.1//EN" "http://www.w3.org/Graphics/SVG/1.1/DTD/svg11.dtd">
<svg xmlns="http://www.w3.org/2000/svg" version="1.1" viewBox="0.00 0.00 512.00 512.00">
<path class="ico-fill" d="
  M 512.00 72.87
  L 512.00 379.03
  C 510.47 396.09 499.22 410.53 482.76 415.11
  Q 477.27 416.64 468.86 416.64
  Q 395.63 416.63 321.64 416.62
  Q 321.24 416.62 321.24 417.03
  L 321.23 476.52
  A 0.44 0.44 0.0 0 0 321.67 476.96
  Q 331.22 476.95 340.97 476.96
  C 354.67 476.98 354.65 496.94 340.89 496.94
  Q 254.57 496.97 170.99 496.93
  C 160.37 496.93 156.50 482.63 166.29 478.01
  Q 168.81 476.82 172.51 476.89
  Q 181.92 477.07 190.38 476.90
  A 0.39 0.39 0.0 0 0 190.76 476.51
  L 190.76 416.98
  A 0.38 0.37 -90.0 0 0 190.39 416.60
  Q 115.25 416.69 40.34 416.58
  C 18.57 416.55 2.11 400.46 0.00 378.91
  L 0.00 72.69
  Q 1.17 59.40 9.09 49.85
  Q 21.05 35.45 40.50 35.39
  Q 188.10 34.91 188.90 35.06
  A 1.15 1.09 33.4 0 0 189.69 34.92
  Q 217.34 17.33 247.64 15.36
  Q 287.78 12.74 322.18 34.88
  Q 322.59 35.14 323.07 35.14
  Q 397.03 35.15 471.16 35.14
  C 493.14 35.14 509.84 50.89 512.00 72.87
  Z
  M 356.42 135.51
  A 100.42 100.42 0.0 0 0 256.00 35.09
  A 100.42 100.42 0.0 0 0 155.58 135.51
  A 100.42 100.42 0.0 0 0 256.00 235.93
  A 100.42 100.42 0.0 0 0 356.42 135.51
  Z
  M 40.20 85.47
  C 40.20 79.49 44.85 75.25 50.76 75.26
  Q 100.97 75.33 151.23 75.29
  Q 151.77 75.29 152.04 74.83
  Q 157.93 64.68 165.99 55.63
  A 0.29 0.29 0.0 0 0 165.77 55.15
  Q 100.51 55.13 40.53 55.15
  C 28.80 55.15 19.99 64.13 19.99 75.76
  Q 20.04 206.51 19.99 335.89
  A 0.54 0.53 -0.0 0 0 20.53 336.42
  L 39.50 336.41
  Q 40.19 336.41 40.19 335.72
  Q 40.16 211.05 40.20 85.47
  Z
  M 461.50 75.33
  C 467.64 75.33 471.81 79.78 471.81 85.89
  Q 471.82 213.95 471.81 335.73
  Q 471.81 336.42 472.50 336.42
  L 491.30 336.42
  A 0.71 0.71 0.0 0 0 492.01 335.70
  Q 491.96 207.31 492.04 77.69
  C 492.04 70.69 490.59 65.13 485.47 60.51
  Q 479.32 54.97 470.99 54.98
  Q 408.70 55.10 346.35 55.18
  Q 345.60 55.18 346.10 55.74
  Q 353.78 64.30 360.03 74.91
  A 0.82 0.81 74.3 0 0 360.73 75.31
  Q 411.13 75.31 461.50 75.33
  Z
  M 365.69 185.21
  Q 365.65 185.31 365.66 185.41
  Q 365.70 185.66 365.93 185.78
  Q 366.13 185.88 405.55 185.65
  Q 413.17 185.60 415.83 186.76
  Q 421.65 189.30 421.65 196.92
  Q 421.63 244.01 421.66 294.87
  C 421.66 302.62 417.03 306.31 409.49 306.30
  Q 254.91 306.04 103.29 306.31
  C 95.78 306.32 90.35 303.52 90.36 295.03
  Q 90.39 247.14 90.36 196.51
  C 90.36 189.50 95.01 185.74 101.63 185.74
  Q 126.41 185.75 146.05 185.74
  A 0.30 0.29 78.6 0 0 146.32 185.33
  Q 127.02 141.41 142.28 95.67
  A 0.28 0.27 -81.4 0 0 142.02 95.31
  L 60.69 95.31
  A 0.50 0.50 0.0 0 0 60.19 95.81
  L 60.18 336.02
  A 0.37 0.36 0.0 0 0 60.55 336.38
  L 451.34 336.38
  Q 451.81 336.38 451.81 335.91
  L 451.82 95.69
  A 0.38 0.38 0.0 0 0 451.44 95.31
  L 369.98 95.31
  A 0.27 0.27 0.0 0 0 369.72 95.67
  Q 384.95 141.57 365.69 185.21
  Z
  M 360.71 235.95
  C 374.87 235.93 374.77 255.95 360.95 255.95
  Q 255.55 255.99 150.14 255.92
  Q 148.57 255.92 147.01 255.29
  C 136.32 250.96 139.78 235.99 151.20 235.97
  Q 169.58 235.94 188.64 235.95
  Q 189.63 235.96 188.81 235.39
  Q 171.09 223.39 158.55 206.18
  Q 158.23 205.74 157.69 205.74
  L 110.68 205.74
  A 0.32 0.32 0.0 0 0 110.36 206.06
  L 110.36 285.87
  A 0.35 0.35 0.0 0 0 110.71 286.22
  L 401.28 286.22
  A 0.35 0.35 0.0 0 0 401.63 285.87
  L 401.64 206.32
  Q 401.64 205.74 401.06 205.74
  L 354.43 205.74
  Q 353.79 205.74 353.41 206.26
  C 345.04 217.61 334.83 227.72 323.18 235.38
  Q 322.34 235.93 323.35 235.93
  Q 344.77 235.98 360.71 235.95
  Z
  M 21.40 383.81
  C 24.31 391.07 31.48 396.56 39.51 396.56
  Q 262.95 396.56 471.91 396.56
  Q 478.95 396.56 484.50 392.11
  C 490.36 387.40 492.23 381.07 492.07 373.49
  Q 491.89 365.08 492.04 356.82
  A 0.38 0.38 0.0 0 0 491.66 356.44
  L 20.23 356.44
  A 0.28 0.28 0.0 0 0 19.95 356.73
  Q 20.17 363.61 19.94 370.41
  Q 19.65 379.44 21.40 383.81
  Z
  M 301.24 416.95
  A 0.33 0.33 0.0 0 0 300.91 416.62
  L 211.09 416.62
  A 0.33 0.33 0.0 0 0 210.76 416.95
  L 210.76 476.63
  A 0.33 0.33 0.0 0 0 211.09 476.96
  L 300.91 476.96
  A 0.33 0.33 0.0 0 0 301.24 476.63
  L 301.24 416.95
  Z"
/>
<path class="ico-fill" d="
  M 266.00 194.80
  Q 265.97 199.73 266.02 204.87
  Q 266.08 210.37 262.43 213.38
  C 257.43 217.50 249.86 216.10 247.06 210.15
  C 245.20 206.20 246.15 200.30 245.94 195.79
  A 0.49 0.48 -88.7 0 0 245.51 195.33
  Q 233.72 194.24 223.02 186.56
  C 217.19 182.37 217.86 174.05 223.65 170.18
  C 227.65 167.51 232.22 168.57 236.03 171.19
  Q 241.32 174.82 247.28 175.44
  Q 255.06 176.23 259.90 175.07
  C 268.99 172.89 275.05 162.72 272.32 153.69
  C 270.82 148.70 266.58 146.09 261.82 144.42
  C 252.86 141.27 244.21 137.88 236.10 132.93
  C 226.21 126.87 221.08 117.50 222.03 106.28
  Q 223.89 84.08 245.43 76.74
  Q 246.08 76.52 246.06 75.84
  Q 245.87 69.86 246.09 64.61
  C 246.53 54.61 260.54 51.61 264.91 60.80
  Q 266.17 63.45 266.05 66.94
  Q 265.90 71.41 266.04 76.11
  Q 266.06 76.62 266.55 76.74
  Q 274.65 78.70 281.37 83.62
  C 292.64 91.86 280.54 108.00 269.60 99.77
  C 263.36 95.07 251.37 93.13 245.53 99.15
  C 242.15 102.63 239.71 110.93 244.63 114.51
  Q 248.69 117.46 253.17 119.46
  Q 261.75 123.26 271.29 126.71
  Q 273.94 127.67 276.68 129.34
  C 304.01 146.06 294.75 184.71 266.60 193.97
  Q 266.00 194.17 266.00 194.80
  Z"
/>
</svg>
