<?xml version="1.0" encoding="UTF-8" standalone="no"?>
<!DOCTYPE svg PUBLIC "-//W3C//DTD SVG 1.1//EN" "http://www.w3.org/Graphics/SVG/1.1/DTD/svg11.dtd">
<svg xmlns="http://www.w3.org/2000/svg" version="1.1" viewBox="0.00 0.00 225.00 225.00">
<g stroke-width="2.00" fill="none" stroke-linecap="butt">
<path stroke="#fac087" vector-effect="non-scaling-stroke" d="
  M 62.40 147.71
  C 67.53 168.98 85.45 183.65 107.30 184.07
  C 118.48 184.29 130.11 180.08 138.41 172.67
  Q 154.61 158.22 154.72 136.25
  Q 154.77 125.99 154.59 115.71"
/>
<path stroke="#fbd192" vector-effect="non-scaling-stroke" d="
  M 154.59 115.71
  Q 154.70 105.11 154.42 94.50
  Q 154.25 87.85 147.58 88.18
  Q 142.24 88.44 137.60 92.41
  A 0.52 0.52 0.0 0 1 136.74 92.02
  L 136.84 75.21
  A 0.42 0.42 0.0 0 1 137.53 74.89
  C 143.72 80.05 152.33 88.07 160.56 80.97
  C 165.14 77.02 164.74 70.79 161.62 66.05
  Q 161.23 65.46 161.54 64.82
  C 163.79 60.23 164.04 56.08 160.94 51.79
  Q 157.71 47.30 150.34 48.35"
/>
<path stroke="#fbe09b" vector-effect="non-scaling-stroke" d="
  M 150.34 48.35
  Q 143.68 50.61 137.91 56.31
  A 0.63 0.62 -24.1 0 1 136.85 55.91
  Q 136.47 49.33 131.74 46.48
  C 122.46 40.88 112.97 48.55 114.29 58.63
  Q 114.46 60.00 113.30 59.25
  Q 110.24 57.27 106.33 56.61
  Q 101.75 55.82 101.22 51.82
  C 100.55 46.86 105.26 46.12 108.73 45.47
  A 1.82 1.81 -1.2 0 0 110.19 43.96
  C 110.45 42.22 109.36 40.85 107.56 41.00
  C 101.48 41.51 96.69 44.21 96.73 50.94
  C 96.79 59.84 103.55 61.06 110.33 62.94
  Q 111.34 63.22 112.05 63.96
  A 0.53 0.53 0.0 0 1 111.72 64.85
  Q 107.18 65.33 103.10 67.01
  Q 100.40 68.12 97.87 67.95
  Q 91.32 67.49 90.58 60.17
  Q 90.30 57.40 87.76 57.59
  A 1.42 1.41 -78.8 0 0 86.60 58.37
  Q 85.69 60.16 86.09 62.25
  Q 87.89 71.63 97.60 72.79
  Q 100.77 73.17 103.83 71.92
  Q 108.56 69.98 113.50 69.59
  A 0.68 0.68 0.0 0 1 114.23 70.28
  L 114.19 84.05
  A 0.72 0.71 11.7 0 1 113.19 84.70
  C 107.43 82.21 100.48 83.79 97.75 89.71
  A 0.86 0.85 25.9 0 1 96.58 90.11
  Q 88.22 85.71 81.85 91.82
  C 80.82 92.80 80.18 94.36 79.38 95.56
  Q 79.03 96.08 78.45 95.83
  C 75.50 94.57 72.84 93.60 69.52 94.58
  Q 64.73 96.01 62.47 100.12
  Q 61.25 102.34 61.16 107.46
  Q 60.85 126.10 61.16 140.50
  Q 61.24 143.99 62.40 147.71"
/>
<path stroke="#f7b22e" vector-effect="non-scaling-stroke" d="
  M 150.34 48.35
  Q 150.54 49.16 151.17 49.23
  Q 151.56 49.27 151.58 49.66
  Q 151.60 49.86 151.38 49.90
  Q 150.50 50.05 151.26 50.51
  Q 151.49 50.65 151.43 50.97
  Q 151.33 51.48 150.94 51.83
  Q 150.74 52.02 150.96 52.20
  A 1.38 1.35 72.2 0 0 151.53 52.50
  Q 152.18 52.68 152.87 52.84"
/>
<path stroke="#fbe09b" vector-effect="non-scaling-stroke" d="
  M 152.87 52.84
  C 147.51 53.38 140.48 60.22 137.32 64.31
  A 1.41 1.41 0.0 0 0 137.02 65.15
  L 137.00 65.84"
/>
<path stroke="#f7b22e" vector-effect="non-scaling-stroke" d="
  M 137.00 65.84
  Q 136.89 65.86 136.74 65.87
  Q 136.54 65.89 136.58 66.10
  Q 136.95 67.93 135.46 68.99
  A 0.77 0.76 71.2 0 0 135.14 69.65
  Q 135.17 70.38 134.43 70.49
  Q 133.91 70.57 134.32 70.89
  Q 134.52 71.05 134.22 71.22
  Q 133.99 71.34 133.73 71.33
  L 131.95 71.26"
/>
<path stroke="#fbe09b" vector-effect="non-scaling-stroke" d="
  M 131.95 71.26
  Q 132.11 70.61 131.96 70.16
  Q 131.80 69.66 131.28 69.65
  L 120.24 69.42
  Q 118.99 69.40 119.01 70.65
  Q 119.33 91.66 119.12 112.58
  C 119.07 117.49 116.23 121.70 111.57 123.28
  Q 105.23 125.43 99.64 120.53
  A 1.17 1.16 43.7 0 0 98.06 120.56
  Q 93.23 125.22 86.59 123.28
  C 84.74 122.74 83.10 121.49 81.53 120.39
  A 0.91 0.89 -48.6 0 0 80.40 120.47
  C 77.33 123.32 73.04 124.74 69.11 123.23
  Q 67.75 122.70 66.33 122.19
  Q 65.67 121.95 65.70 122.65
  Q 65.96 130.20 65.97 137.97
  C 65.98 140.66 66.42 143.35 66.71 146.03"
/>
<path stroke="#f6a123" vector-effect="non-scaling-stroke" d="
  M 66.71 146.03
  Q 62.89 143.57 62.40 147.71"
/>
<path stroke="#fac087" vector-effect="non-scaling-stroke" d="
  M 149.54 122.71
  C 149.55 130.45 150.08 139.57 148.60 146.35
  C 142.95 172.10 114.24 186.48 90.43 175.36
  Q 71.54 166.53 66.71 146.03"
/>
<path stroke="#f6921a" vector-effect="non-scaling-stroke" d="
  M 154.59 115.71
  Q 154.54 118.56 154.35 121.38
  Q 154.34 121.57 154.15 121.54
  L 154.15 121.54
  Q 154.09 121.53 154.10 121.46
  Q 154.26 120.49 154.03 119.62
  Q 153.80 118.73 153.68 119.65
  Q 153.58 120.48 153.62 121.28
  Q 153.66 121.98 153.62 121.28
  Q 153.60 120.90 153.22 120.80
  Q 152.67 120.66 152.94 120.15
  Q 153.05 119.94 152.93 119.74
  Q 152.49 118.98 152.20 119.81
  Q 151.91 120.63 151.28 121.42
  Q 151.09 121.67 151.10 121.35
  Q 151.12 120.89 150.65 120.76
  Q 150.53 120.73 150.45 120.81
  Q 150.32 120.94 150.35 120.77
  Q 150.40 120.41 150.35 120.04
  Q 150.27 119.44 150.06 120.01
  Q 149.58 121.26 149.54 122.71"
/>
<path stroke="#fbd192" vector-effect="non-scaling-stroke" d="
  M 149.54 122.71
  L 149.56 94.27
  A 0.97 0.96 3.8 0 0 148.72 93.32
  Q 146.15 92.96 143.77 94.14
  Q 136.87 97.55 136.83 105.86
  Q 136.78 113.82 136.88 122.62
  Q 136.89 124.02 136.48 125.32
  A 1.22 1.21 -81.3 0 1 135.34 126.16
  C 119.73 126.32 109.03 137.05 108.39 152.62
  Q 108.31 154.51 106.42 154.50
  L 105.98 154.50
  Q 103.58 154.50 103.59 152.10
  Q 103.62 145.26 106.05 139.93
  C 111.10 128.89 119.60 123.45 131.16 121.23
  A 0.80 0.78 84.8 0 0 131.80 120.45
  L 131.95 71.26"
/>
<path stroke="#fbd192" vector-effect="non-scaling-stroke" d="
  M 137.00 65.84
  C 141.91 67.10 149.04 65.71 153.62 64.35
  C 160.26 62.39 159.75 53.69 152.87 52.84"
/>
<path stroke="#fbe09b" vector-effect="non-scaling-stroke" d="
  M 120.02 64.62
  L 131.00 64.58
  A 1.03 1.03 0.0 0 0 132.02 63.55
  L 132.00 56.39
  A 7.11 6.35 89.8 0 0 125.62 49.30
  L 125.28 49.30
  A 7.11 6.35 89.8 0 0 118.96 56.43
  L 118.98 63.59
  A 1.03 1.03 0.0 0 0 120.02 64.62"
/>
<path stroke="#fbe09b" vector-effect="non-scaling-stroke" d="
  M 114.0188 94.6279
  A 6.08 6.08 0.0 0 0 107.9176 88.5691
  L 107.3776 88.5710
  A 6.08 6.08 0.0 0 0 101.3189 94.6722
  L 101.3812 112.5321
  A 6.08 6.08 0.0 0 0 107.4824 118.5909
  L 108.0224 118.5890
  A 6.08 6.08 0.0 0 0 114.0811 112.4878
  L 114.0188 94.6279"
/>
<path stroke="#fbe09b" vector-effect="non-scaling-stroke" d="
  M 96.4484 99.2688
  A 6.10 6.10 0.0 0 0 90.3378 93.1794
  L 89.6778 93.1806
  A 6.10 6.10 0.0 0 0 83.5885 99.2912
  L 83.6116 112.5312
  A 6.10 6.10 0.0 0 0 89.7222 118.6206
  L 90.3822 118.6194
  A 6.10 6.10 0.0 0 0 96.4715 112.5088
  L 96.4484 99.2688"
/>
<path stroke="#fbe09b" vector-effect="non-scaling-stroke" d="
  M 78.7000 105.0764
  A 6.02 6.02 0.0 0 0 72.6486 99.0880
  L 71.8286 99.0923
  A 6.02 6.02 0.0 0 0 65.8402 105.1437
  L 65.8800 112.7436
  A 6.02 6.02 0.0 0 0 71.9314 118.7320
  L 72.7514 118.7277
  A 6.02 6.02 0.0 0 0 78.7398 112.6763
  L 78.7000 105.0764"
/>
<path stroke="#fbd192" vector-effect="non-scaling-stroke" d="
  M 142.08 71.14
  A 0.36 0.36 0.0 0 0 141.79 71.68
  C 143.11 74.02 148.96 77.09 150.87 77.89
  C 156.32 80.18 160.74 74.93 158.02 69.90
  A 1.91 1.91 0.0 0 0 155.85 68.95
  Q 148.95 70.71 142.08 71.14"
/>
</g>
<path fill="#ffffff" d="
  M 0.00 0.00
  L 225.00 0.00
  L 225.00 225.00
  L 0.00 225.00
  L 0.00 0.00
  Z
  M 62.40 147.71
  C 67.53 168.98 85.45 183.65 107.30 184.07
  C 118.48 184.29 130.11 180.08 138.41 172.67
  Q 154.61 158.22 154.72 136.25
  Q 154.77 125.99 154.59 115.71
  Q 154.70 105.11 154.42 94.50
  Q 154.25 87.85 147.58 88.18
  Q 142.24 88.44 137.60 92.41
  A 0.52 0.52 0.0 0 1 136.74 92.02
  L 136.84 75.21
  A 0.42 0.42 0.0 0 1 137.53 74.89
  C 143.72 80.05 152.33 88.07 160.56 80.97
  C 165.14 77.02 164.74 70.79 161.62 66.05
  Q 161.23 65.46 161.54 64.82
  C 163.79 60.23 164.04 56.08 160.94 51.79
  Q 157.71 47.30 150.34 48.35
  Q 143.68 50.61 137.91 56.31
  A 0.63 0.62 -24.1 0 1 136.85 55.91
  Q 136.47 49.33 131.74 46.48
  C 122.46 40.88 112.97 48.55 114.29 58.63
  Q 114.46 60.00 113.30 59.25
  Q 110.24 57.27 106.33 56.61
  Q 101.75 55.82 101.22 51.82
  C 100.55 46.86 105.26 46.12 108.73 45.47
  A 1.82 1.81 -1.2 0 0 110.19 43.96
  C 110.45 42.22 109.36 40.85 107.56 41.00
  C 101.48 41.51 96.69 44.21 96.73 50.94
  C 96.79 59.84 103.55 61.06 110.33 62.94
  Q 111.34 63.22 112.05 63.96
  A 0.53 0.53 0.0 0 1 111.72 64.85
  Q 107.18 65.33 103.10 67.01
  Q 100.40 68.12 97.87 67.95
  Q 91.32 67.49 90.58 60.17
  Q 90.30 57.40 87.76 57.59
  A 1.42 1.41 -78.8 0 0 86.60 58.37
  Q 85.69 60.16 86.09 62.25
  Q 87.89 71.63 97.60 72.79
  Q 100.77 73.17 103.83 71.92
  Q 108.56 69.98 113.50 69.59
  A 0.68 0.68 0.0 0 1 114.23 70.28
  L 114.19 84.05
  A 0.72 0.71 11.7 0 1 113.19 84.70
  C 107.43 82.21 100.48 83.79 97.75 89.71
  A 0.86 0.85 25.9 0 1 96.58 90.11
  Q 88.22 85.71 81.85 91.82
  C 80.82 92.80 80.18 94.36 79.38 95.56
  Q 79.03 96.08 78.45 95.83
  C 75.50 94.57 72.84 93.60 69.52 94.58
  Q 64.73 96.01 62.47 100.12
  Q 61.25 102.34 61.16 107.46
  Q 60.85 126.10 61.16 140.50
  Q 61.24 143.99 62.40 147.71
  Z"
/>
<path fill="#f7c037" d="
  M 150.34 48.35
  Q 150.54 49.16 151.17 49.23
  Q 151.56 49.27 151.58 49.66
  Q 151.60 49.86 151.38 49.90
  Q 150.50 50.05 151.26 50.51
  Q 151.49 50.65 151.43 50.97
  Q 151.33 51.48 150.94 51.83
  Q 150.74 52.02 150.96 52.20
  A 1.38 1.35 72.2 0 0 151.53 52.50
  Q 152.18 52.68 152.87 52.84
  C 147.51 53.38 140.48 60.22 137.32 64.31
  A 1.41 1.41 0.0 0 0 137.02 65.15
  L 137.00 65.84
  Q 136.89 65.86 136.74 65.87
  Q 136.54 65.89 136.58 66.10
  Q 136.95 67.93 135.46 68.99
  A 0.77 0.76 71.2 0 0 135.14 69.65
  Q 135.17 70.38 134.43 70.49
  Q 133.91 70.57 134.32 70.89
  Q 134.52 71.05 134.22 71.22
  Q 133.99 71.34 133.73 71.33
  L 131.95 71.26
  Q 132.11 70.61 131.96 70.16
  Q 131.80 69.66 131.28 69.65
  L 120.24 69.42
  Q 118.99 69.40 119.01 70.65
  Q 119.33 91.66 119.12 112.58
  C 119.07 117.49 116.23 121.70 111.57 123.28
  Q 105.23 125.43 99.64 120.53
  A 1.17 1.16 43.7 0 0 98.06 120.56
  Q 93.23 125.22 86.59 123.28
  C 84.74 122.74 83.10 121.49 81.53 120.39
  A 0.91 0.89 -48.6 0 0 80.40 120.47
  C 77.33 123.32 73.04 124.74 69.11 123.23
  Q 67.75 122.70 66.33 122.19
  Q 65.67 121.95 65.70 122.65
  Q 65.96 130.20 65.97 137.97
  C 65.98 140.66 66.42 143.35 66.71 146.03
  Q 62.89 143.57 62.40 147.71
  Q 61.24 143.99 61.16 140.50
  Q 60.85 126.10 61.16 107.46
  Q 61.25 102.34 62.47 100.12
  Q 64.73 96.01 69.52 94.58
  C 72.84 93.60 75.50 94.57 78.45 95.83
  Q 79.03 96.08 79.38 95.56
  C 80.18 94.36 80.82 92.80 81.85 91.82
  Q 88.22 85.71 96.58 90.11
  A 0.86 0.85 25.9 0 0 97.75 89.71
  C 100.48 83.79 107.43 82.21 113.19 84.70
  A 0.72 0.71 11.7 0 0 114.19 84.05
  L 114.23 70.28
  A 0.68 0.68 0.0 0 0 113.50 69.59
  Q 108.56 69.98 103.83 71.92
  Q 100.77 73.17 97.60 72.79
  Q 87.89 71.63 86.09 62.25
  Q 85.69 60.16 86.60 58.37
  A 1.42 1.41 -78.8 0 1 87.76 57.59
  Q 90.30 57.40 90.58 60.17
  Q 91.32 67.49 97.87 67.95
  Q 100.40 68.12 103.10 67.01
  Q 107.18 65.33 111.72 64.85
  A 0.53 0.53 0.0 0 0 112.05 63.96
  Q 111.34 63.22 110.33 62.94
  C 103.55 61.06 96.79 59.84 96.73 50.94
  C 96.69 44.21 101.48 41.51 107.56 41.00
  C 109.36 40.85 110.45 42.22 110.19 43.96
  A 1.82 1.81 -1.2 0 1 108.73 45.47
  C 105.26 46.12 100.55 46.86 101.22 51.82
  Q 101.75 55.82 106.33 56.61
  Q 110.24 57.27 113.30 59.25
  Q 114.46 60.00 114.29 58.63
  C 112.97 48.55 122.46 40.88 131.74 46.48
  Q 136.47 49.33 136.85 55.91
  A 0.63 0.62 -24.1 0 0 137.91 56.31
  Q 143.68 50.61 150.34 48.35
  Z
  M 120.02 64.62
  L 131.00 64.58
  A 1.03 1.03 0.0 0 0 132.02 63.55
  L 132.00 56.39
  A 7.11 6.35 89.8 0 0 125.62 49.30
  L 125.28 49.30
  A 7.11 6.35 89.8 0 0 118.96 56.43
  L 118.98 63.59
  A 1.03 1.03 0.0 0 0 120.02 64.62
  Z
  M 114.0188 94.6279
  A 6.08 6.08 0.0 0 0 107.9176 88.5691
  L 107.3776 88.5710
  A 6.08 6.08 0.0 0 0 101.3189 94.6722
  L 101.3812 112.5321
  A 6.08 6.08 0.0 0 0 107.4824 118.5909
  L 108.0224 118.5890
  A 6.08 6.08 0.0 0 0 114.0811 112.4878
  L 114.0188 94.6279
  Z
  M 96.4484 99.2688
  A 6.10 6.10 0.0 0 0 90.3378 93.1794
  L 89.6778 93.1806
  A 6.10 6.10 0.0 0 0 83.5885 99.2912
  L 83.6116 112.5312
  A 6.10 6.10 0.0 0 0 89.7222 118.6206
  L 90.3822 118.6194
  A 6.10 6.10 0.0 0 0 96.4715 112.5088
  L 96.4484 99.2688
  Z
  M 78.7000 105.0764
  A 6.02 6.02 0.0 0 0 72.6486 99.0880
  L 71.8286 99.0923
  A 6.02 6.02 0.0 0 0 65.8402 105.1437
  L 65.8800 112.7436
  A 6.02 6.02 0.0 0 0 71.9314 118.7320
  L 72.7514 118.7277
  A 6.02 6.02 0.0 0 0 78.7398 112.6763
  L 78.7000 105.0764
  Z"
/>
<path fill="#f7a325" d="
  M 154.59 115.71
  Q 154.54 118.56 154.35 121.38
  Q 154.34 121.57 154.15 121.54
  L 154.15 121.54
  Q 154.09 121.53 154.10 121.46
  Q 154.26 120.49 154.03 119.62
  Q 153.80 118.73 153.68 119.65
  Q 153.58 120.48 153.62 121.28
  Q 153.66 121.98 153.62 121.28
  Q 153.60 120.90 153.22 120.80
  Q 152.67 120.66 152.94 120.15
  Q 153.05 119.94 152.93 119.74
  Q 152.49 118.98 152.20 119.81
  Q 151.91 120.63 151.28 121.42
  Q 151.09 121.67 151.10 121.35
  Q 151.12 120.89 150.65 120.76
  Q 150.53 120.73 150.45 120.81
  Q 150.32 120.94 150.35 120.77
  Q 150.40 120.41 150.35 120.04
  Q 150.27 119.44 150.06 120.01
  Q 149.58 121.26 149.54 122.71
  L 149.56 94.27
  A 0.97 0.96 3.8 0 0 148.72 93.32
  Q 146.15 92.96 143.77 94.14
  Q 136.87 97.55 136.83 105.86
  Q 136.78 113.82 136.88 122.62
  Q 136.89 124.02 136.48 125.32
  A 1.22 1.21 -81.3 0 1 135.34 126.16
  C 119.73 126.32 109.03 137.05 108.39 152.62
  Q 108.31 154.51 106.42 154.50
  L 105.98 154.50
  Q 103.58 154.50 103.59 152.10
  Q 103.62 145.26 106.05 139.93
  C 111.10 128.89 119.60 123.45 131.16 121.23
  A 0.80 0.78 84.8 0 0 131.80 120.45
  L 131.95 71.26
  L 133.73 71.33
  Q 133.99 71.34 134.22 71.22
  Q 134.52 71.05 134.32 70.89
  Q 133.91 70.57 134.43 70.49
  Q 135.17 70.38 135.14 69.65
  A 0.77 0.76 71.2 0 1 135.46 68.99
  Q 136.95 67.93 136.58 66.10
  Q 136.54 65.89 136.74 65.87
  Q 136.89 65.86 137.00 65.84
  C 141.91 67.10 149.04 65.71 153.62 64.35
  C 160.26 62.39 159.75 53.69 152.87 52.84
  Q 152.18 52.68 151.53 52.50
  A 1.38 1.35 72.2 0 1 150.96 52.20
  Q 150.74 52.02 150.94 51.83
  Q 151.33 51.48 151.43 50.97
  Q 151.49 50.65 151.26 50.51
  Q 150.50 50.05 151.38 49.90
  Q 151.60 49.86 151.58 49.66
  Q 151.56 49.27 151.17 49.23
  Q 150.54 49.16 150.34 48.35
  Q 157.71 47.30 160.94 51.79
  C 164.04 56.08 163.79 60.23 161.54 64.82
  Q 161.23 65.46 161.62 66.05
  C 164.74 70.79 165.14 77.02 160.56 80.97
  C 152.33 88.07 143.72 80.05 137.53 74.89
  A 0.42 0.42 0.0 0 0 136.84 75.21
  L 136.74 92.02
  A 0.52 0.52 0.0 0 0 137.60 92.41
  Q 142.24 88.44 147.58 88.18
  Q 154.25 87.85 154.42 94.50
  Q 154.70 105.11 154.59 115.71
  Z
  M 142.08 71.14
  A 0.36 0.36 0.0 0 0 141.79 71.68
  C 143.11 74.02 148.96 77.09 150.87 77.89
  C 156.32 80.18 160.74 74.93 158.02 69.90
  A 1.91 1.91 0.0 0 0 155.85 68.95
  Q 148.95 70.71 142.08 71.14
  Z"
/>
<path fill="#ffffff" d="
  M 120.02 64.62
  A 1.03 1.03 0.0 0 1 118.98 63.59
  L 118.96 56.43
  A 7.11 6.35 89.8 0 1 125.28 49.30
  L 125.62 49.30
  A 7.11 6.35 89.8 0 1 132.00 56.39
  L 132.02 63.55
  A 1.03 1.03 0.0 0 1 131.00 64.58
  L 120.02 64.62
  Z"
/>
<path fill="#ffffff" d="
  M 152.87 52.84
  C 159.75 53.69 160.26 62.39 153.62 64.35
  C 149.04 65.71 141.91 67.10 137.00 65.84
  L 137.02 65.15
  A 1.41 1.41 0.0 0 1 137.32 64.31
  C 140.48 60.22 147.51 53.38 152.87 52.84
  Z"
/>
<path fill="#ffffff" d="
  M 142.08 71.14
  Q 148.95 70.71 155.85 68.95
  A 1.91 1.91 0.0 0 1 158.02 69.90
  C 160.74 74.93 156.32 80.18 150.87 77.89
  C 148.96 77.09 143.11 74.02 141.79 71.68
  A 0.36 0.36 0.0 0 1 142.08 71.14
  Z"
/>
<path fill="#ffffff" d="
  M 131.95 71.26
  L 131.80 120.45
  A 0.80 0.78 84.8 0 1 131.16 121.23
  C 119.60 123.45 111.10 128.89 106.05 139.93
  Q 103.62 145.26 103.59 152.10
  Q 103.58 154.50 105.98 154.50
  L 106.42 154.50
  Q 108.31 154.51 108.39 152.62
  C 109.03 137.05 119.73 126.32 135.34 126.16
  A 1.22 1.21 -81.3 0 0 136.48 125.32
  Q 136.89 124.02 136.88 122.62
  Q 136.78 113.82 136.83 105.86
  Q 136.87 97.55 143.77 94.14
  Q 146.15 92.96 148.72 93.32
  A 0.97 0.96 3.8 0 1 149.56 94.27
  L 149.54 122.71
  C 149.55 130.45 150.08 139.57 148.60 146.35
  C 142.95 172.10 114.24 186.48 90.43 175.36
  Q 71.54 166.53 66.71 146.03
  C 66.42 143.35 65.98 140.66 65.97 137.97
  Q 65.96 130.20 65.70 122.65
  Q 65.67 121.95 66.33 122.19
  Q 67.75 122.70 69.11 123.23
  C 73.04 124.74 77.33 123.32 80.40 120.47
  A 0.91 0.89 -48.6 0 1 81.53 120.39
  C 83.10 121.49 84.74 122.74 86.59 123.28
  Q 93.23 125.22 98.06 120.56
  A 1.17 1.16 43.7 0 1 99.64 120.53
  Q 105.23 125.43 111.57 123.28
  C 116.23 121.70 119.07 117.49 119.12 112.58
  Q 119.33 91.66 119.01 70.65
  Q 118.99 69.40 120.24 69.42
  L 131.28 69.65
  Q 131.80 69.66 131.96 70.16
  Q 132.11 70.61 131.95 71.26
  Z"
/>
<rect fill="#ffffff" x="-6.35" y="-15.01" transform="translate(107.70,103.58) rotate(-0.2)" width="12.70" height="30.02" rx="6.08"/>
<rect fill="#ffffff" x="-6.43" y="-12.72" transform="translate(90.03,105.90) rotate(-0.1)" width="12.86" height="25.44" rx="6.10"/>
<rect fill="#ffffff" x="-6.43" y="-9.82" transform="translate(72.29,108.91) rotate(-0.3)" width="12.86" height="19.64" rx="6.02"/>
<path fill="#f5810f" d="
  M 154.59 115.71
  Q 154.77 125.99 154.72 136.25
  Q 154.61 158.22 138.41 172.67
  C 130.11 180.08 118.48 184.29 107.30 184.07
  C 85.45 183.65 67.53 168.98 62.40 147.71
  Q 62.89 143.57 66.71 146.03
  Q 71.54 166.53 90.43 175.36
  C 114.24 186.48 142.95 172.10 148.60 146.35
  C 150.08 139.57 149.55 130.45 149.54 122.71
  Q 149.58 121.26 150.06 120.01
  Q 150.27 119.44 150.35 120.04
  Q 150.40 120.41 150.35 120.77
  Q 150.32 120.94 150.45 120.81
  Q 150.53 120.73 150.65 120.76
  Q 151.12 120.89 151.10 121.35
  Q 151.09 121.67 151.28 121.42
  Q 151.91 120.63 152.20 119.81
  Q 152.49 118.98 152.93 119.74
  Q 153.05 119.94 152.94 120.15
  Q 152.67 120.66 153.22 120.80
  Q 153.60 120.90 153.62 121.28
  Q 153.66 121.98 153.62 121.28
  Q 153.58 120.48 153.68 119.65
  Q 153.80 118.73 154.03 119.62
  Q 154.26 120.49 154.10 121.46
  Q 154.09 121.53 154.15 121.54
  L 154.15 121.54
  Q 154.34 121.57 154.35 121.38
  Q 154.54 118.56 154.59 115.71
  Z"
/>
</svg>
