<?xml version="1.0" encoding="UTF-8" standalone="no"?>
<!DOCTYPE svg PUBLIC "-//W3C//DTD SVG 1.1//EN" "http://www.w3.org/Graphics/SVG/1.1/DTD/svg11.dtd">
<svg xmlns="http://www.w3.org/2000/svg" version="1.1" viewBox="0.00 0.00 512.00 512.00">
<path class="ico-fill" d="
  M 24.07 0.00
  L 436.81 0.00
  C 451.72 2.45 460.82 12.78 460.81 27.62
  Q 460.77 121.96 460.76 221.37
  Q 460.76 221.97 461.11 222.45
  C 488.86 260.80 481.35 312.57 443.68 341.21
  Q 443.19 341.59 443.80 341.68
  Q 472.91 345.83 491.55 365.95
  Q 509.98 385.82 512.00 414.13
  L 512.00 480.32
  C 509.75 498.19 498.04 509.83 480.22 512.00
  L 304.67 512.00
  C 286.16 510.05 273.04 495.56 273.05 477.15
  Q 273.05 460.78 273.05 444.31
  Q 273.05 443.74 272.48 443.74
  Q 202.56 443.73 124.25 443.80
  Q 115.63 443.81 111.57 442.42
  C 87.77 434.28 88.20 400.71 112.36 393.57
  Q 116.85 392.24 126.29 392.48
  Q 133.30 392.66 139.81 392.45
  Q 140.31 392.43 140.56 392.01
  L 155.25 367.51
  Q 155.57 366.98 154.96 366.98
  Q 93.87 366.88 32.25 367.05
  Q 22.72 367.08 17.76 365.42
  C 7.74 362.06 1.66 353.59 0.00 342.91
  L 0.00 23.94
  Q 3.49 3.33 24.07 0.00
  Z
  M 192.25 223.10
  C 228.11 229.18 254.74 260.13 255.92 296.21
  Q 256.09 301.26 256.01 306.72
  A 0.50 0.49 0.6 0 0 256.51 307.22
  L 313.74 307.22
  Q 314.38 307.22 314.13 306.63
  C 298.26 268.72 310.80 224.80 345.19 202.11
  C 375.31 182.23 414.19 183.13 443.29 204.62
  A 0.29 0.29 0.0 0 0 443.76 204.39
  Q 443.72 113.89 443.74 26.99
  C 443.74 21.54 439.80 17.03 434.19 17.03
  Q 229.67 17.04 26.81 17.04
  C 21.15 17.04 17.06 21.23 17.06 27.09
  Q 17.04 167.11 17.05 306.80
  A 0.42 0.42 0.0 0 0 17.47 307.22
  L 33.54 307.22
  Q 34.18 307.22 34.18 306.58
  C 34.13 300.89 34.00 295.08 34.74 289.43
  C 39.19 255.55 63.99 229.49 97.66 223.08
  Q 98.39 222.94 97.81 222.48
  C 80.77 208.95 69.97 189.22 68.52 167.52
  C 65.18 117.50 109.05 77.82 158.37 86.43
  Q 181.66 90.49 198.57 106.99
  C 231.81 139.41 229.11 193.78 192.12 222.62
  A 0.27 0.27 0.0 0 0 192.25 223.10
  Z
  M 204.76 162.12
  A 59.70 59.70 0.0 0 0 145.06 102.42
  A 59.70 59.70 0.0 0 0 85.36 162.12
  A 59.70 59.70 0.0 0 0 145.06 221.82
  A 59.70 59.70 0.0 0 0 204.76 162.12
  Z
  M 460.78 273.05
  A 68.26 68.26 0.0 0 0 392.52 204.79
  A 68.26 68.26 0.0 0 0 324.26 273.05
  A 68.26 68.26 0.0 0 0 392.52 341.31
  A 68.26 68.26 0.0 0 0 460.78 273.05
  Z
  M 88.44 243.83
  C 93.33 264.32 101.00 284.34 111.12 302.80
  Q 111.52 303.53 111.69 302.71
  Q 115.28 284.49 118.95 266.37
  Q 119.29 264.71 118.84 262.93
  Q 115.80 251.08 112.98 239.53
  Q 112.84 238.98 112.28 238.97
  Q 99.98 238.76 88.70 243.32
  A 0.44 0.43 72.3 0 0 88.44 243.83
  Z
  M 155.21 256.00
  A 0.34 0.34 0.0 0 0 155.54 255.74
  L 159.63 239.37
  A 0.34 0.34 0.0 0 0 159.30 238.95
  L 130.85 238.95
  A 0.34 0.34 0.0 0 0 130.52 239.37
  L 134.61 255.74
  A 0.34 0.34 0.0 0 0 134.94 256.00
  L 155.21 256.00
  Z
  M 179.11 302.76
  Q 194.85 273.16 201.70 243.73
  A 0.36 0.35 -72.8 0 0 201.49 243.32
  Q 190.41 238.81 177.86 238.96
  Q 177.29 238.97 177.16 239.52
  Q 174.46 250.69 171.41 262.46
  Q 170.84 264.64 171.27 266.77
  Q 175.02 285.25 178.44 302.66
  Q 178.64 303.65 179.11 302.76
  Z
  M 72.76 252.84
  C 59.99 263.45 51.97 279.19 51.32 295.75
  Q 51.10 301.29 51.28 306.98
  A 0.25 0.24 88.8 0 0 51.52 307.22
  L 93.27 307.22
  Q 93.98 307.22 93.65 306.58
  Q 80.29 280.76 73.15 252.96
  A 0.24 0.24 0.0 0 0 72.76 252.84
  Z
  M 216.98 253.12
  C 212.05 271.92 205.18 289.78 196.34 306.88
  A 0.23 0.23 0.0 0 0 196.55 307.22
  L 238.28 307.22
  Q 238.84 307.22 238.87 306.66
  Q 239.32 297.84 238.36 290.77
  Q 235.32 268.42 217.61 252.93
  A 0.39 0.39 0.0 0 0 216.98 253.12
  Z
  M 155.21 273.39
  A 0.42 0.42 0.0 0 0 154.80 273.05
  L 135.35 273.05
  A 0.42 0.42 0.0 0 0 134.94 273.39
  L 128.27 306.72
  A 0.42 0.42 0.0 0 0 128.68 307.22
  L 161.47 307.22
  A 0.42 0.42 0.0 0 0 161.88 306.72
  L 155.21 273.39
  Z
  M 315.93 349.33
  C 324.10 345.37 332.54 342.76 341.21 341.86
  Q 342.14 341.76 341.40 341.20
  Q 331.45 333.54 324.86 324.72
  Q 324.52 324.26 323.95 324.26
  L 17.75 324.26
  Q 17.04 324.26 17.04 324.97
  Q 17.05 332.27 17.05 339.49
  C 17.06 345.62 20.91 349.88 26.91 349.88
  Q 170.98 349.84 313.59 349.87
  Q 314.82 349.87 315.93 349.33
  Z
  M 307.65 495.01
  L 477.49 495.01
  A 17.63 17.63 0.0 0 0 495.12 477.38
  L 495.12 419.32
  A 61.14 61.11 0.0 0 0 433.98 358.21
  L 351.16 358.21
  A 61.14 61.11 -0.0 0 0 290.02 419.32
  L 290.02 477.38
  A 17.63 17.63 0.0 0 0 307.65 495.01
  Z
  M 277.78 391.95
  C 281.11 382.82 286.08 374.47 292.60 367.19
  A 0.15 0.14 -68.7 0 0 292.50 366.95
  L 176.03 366.95
  Q 175.49 366.95 175.21 367.42
  L 160.59 391.81
  Q 160.16 392.51 160.99 392.51
  L 276.99 392.51
  Q 277.58 392.51 277.78 391.95
  Z
  M 119.72 409.58
  C 108.15 409.58 107.98 426.70 120.21 426.69
  Q 198.77 426.68 272.68 426.69
  Q 273.07 426.69 273.06 426.29
  Q 272.86 418.12 273.50 409.91
  A 0.31 0.31 0.0 0 0 273.19 409.57
  Q 195.93 409.60 119.72 409.58
  Z"
/>
<path class="ico-fill" d="
  M 272.34 170.64
  C 268.15 170.69 263.89 170.92 259.77 170.17
  C 247.48 167.92 238.91 157.14 238.93 144.66
  Q 238.99 103.89 238.89 63.16
  Q 238.87 55.72 240.13 51.92
  C 243.53 41.64 253.24 34.15 264.16 34.15
  Q 332.03 34.14 396.62 34.09
  Q 404.72 34.09 408.71 35.33
  C 419.70 38.74 426.64 48.71 426.66 60.32
  Q 426.74 104.34 426.67 143.88
  C 426.64 159.28 415.71 170.70 400.44 170.69
  Q 373.06 170.68 344.57 170.70
  Q 344.04 170.70 343.61 171.00
  Q 321.48 186.78 300.72 201.53
  C 290.97 208.46 277.60 203.81 273.99 192.79
  Q 272.80 189.15 273.00 182.36
  Q 273.17 176.77 273.02 171.29
  Q 273.00 170.64 272.34 170.64
  Z
  M 290.10 186.55
  Q 290.03 186.82 290.23 187.03
  Q 290.41 187.23 290.63 187.07
  Q 313.00 171.47 336.53 155.10
  Q 338.61 153.65 341.11 153.63
  Q 366.13 153.47 398.95 153.66
  C 403.15 153.69 406.87 152.77 408.76 148.66
  Q 409.59 146.85 409.59 141.26
  Q 409.57 100.75 409.59 60.25
  C 409.60 54.57 405.68 51.19 400.31 51.20
  Q 335.54 51.23 265.02 51.22
  C 259.45 51.22 255.99 55.10 255.99 60.35
  Q 256.00 105.10 256.01 145.00
  C 256.02 150.63 260.44 153.67 265.88 153.63
  Q 273.10 153.57 279.71 153.53
  C 283.80 153.50 287.60 154.56 289.32 158.65
  Q 290.32 161.05 290.23 166.38
  Q 290.06 176.64 290.13 186.25
  Q 290.13 186.40 290.10 186.55
  Z"
/>
<rect class="ico-fill" x="-29.77" y="-8.51" transform="translate(302.93,76.79) rotate(-0.1)" width="59.54" height="17.02" rx="8.26"/>
<rect class="ico-fill" x="-59.65" y="-8.53" transform="translate(332.80,110.94) rotate(0.1)" width="119.30" height="17.06" rx="8.40"/>
</svg>
