<?xml version="1.0" encoding="UTF-8" standalone="no"?>
<!DOCTYPE svg PUBLIC "-//W3C//DTD SVG 1.1//EN" "http://www.w3.org/Graphics/SVG/1.1/DTD/svg11.dtd">
<svg xmlns="http://www.w3.org/2000/svg" version="1.1" viewBox="0.00 0.00 512.00 512.00">
<circle class="ico-fill" cx="266.86" cy="58.95" r="44.96"/>
<path class="ico-fill" d="
  M 138.93 77.53
  A 54.34 54.34 0.0 0 1 84.59 131.87
  A 54.34 54.34 0.0 0 1 30.25 77.53
  A 54.34 54.34 0.0 0 1 84.59 23.19
  A 54.34 54.34 0.0 0 1 138.93 77.53
  Z
  M 102.14 107.01
  Q 102.34 106.90 102.54 106.80
  Q 105.29 105.34 107.10 107.88
  L 110.56 112.76
  Q 110.92 113.27 111.42 112.90
  Q 117.58 108.34 121.52 101.89
  A 0.33 0.33 0.0 0 0 121.38 101.42
  L 116.57 98.99
  Q 114.26 97.83 113.82 95.29
  Q 113.66 94.36 114.18 93.71
  Q 116.28 91.09 119.27 92.60
  L 124.32 95.14
  Q 124.86 95.42 125.12 94.87
  Q 128.48 87.88 128.73 80.63
  Q 128.75 79.99 128.11 79.99
  L 120.72 79.89
  Q 117.84 79.85 117.95 76.97
  L 118.00 75.79
  Q 118.11 72.95 120.96 72.95
  L 127.51 72.96
  A 0.41 0.41 0.0 0 0 127.92 72.49
  Q 126.74 64.75 123.63 58.03
  Q 123.30 57.32 122.70 57.81
  Q 120.33 59.72 117.79 61.23
  Q 115.30 62.71 114.26 60.00
  L 113.58 58.21
  Q 112.57 55.57 115.03 54.18
  L 119.63 51.56
  Q 120.22 51.22 119.79 50.69
  Q 115.47 45.32 109.30 40.80
  Q 108.76 40.41 108.54 41.03
  Q 107.56 43.80 106.36 46.28
  C 104.23 50.70 97.87 47.54 100.38 42.76
  Q 101.70 40.25 102.89 37.82
  Q 103.16 37.27 102.61 37.00
  Q 96.00 33.75 88.31 33.38
  Q 87.70 33.35 87.69 33.97
  L 87.65 40.96
  A 2.93 2.92 -19.9 0 1 86.60 43.18
  Q 85.36 44.20 83.95 44.19
  Q 80.69 44.17 80.70 40.92
  L 80.71 34.76
  A 0.53 0.53 0.0 0 0 80.10 34.24
  Q 72.16 35.47 65.63 38.57
  Q 65.13 38.80 65.33 39.32
  L 67.97 46.07
  Q 68.87 48.38 66.73 49.62
  Q 66.35 49.83 65.90 49.84
  Q 62.95 49.89 61.64 47.25
  L 59.18 42.33
  Q 58.96 41.90 58.56 42.17
  Q 52.17 46.61 47.84 52.79
  Q 47.57 53.18 47.96 53.45
  L 53.29 57.22
  Q 55.59 58.84 55.14 61.62
  Q 55.05 62.17 54.72 62.58
  Q 53.52 64.06 51.82 63.19
  L 45.56 60.00
  Q 45.01 59.71 44.74 60.27
  Q 41.33 67.46 41.16 74.68
  A 0.56 0.56 0.0 0 0 41.72 75.26
  L 48.17 75.26
  Q 50.87 75.26 51.27 77.92
  L 51.38 78.71
  Q 51.74 81.08 49.35 81.31
  Q 45.83 81.65 41.75 81.41
  A 0.50 0.50 0.0 0 0 41.22 81.98
  Q 42.34 89.59 45.56 96.57
  A 0.43 0.43 0.0 0 0 46.18 96.75
  Q 48.73 95.17 51.29 93.92
  Q 54.46 92.36 55.70 95.58
  C 56.54 97.77 56.06 99.65 54.16 100.99
  Q 51.76 102.70 49.39 104.38
  Q 48.89 104.73 49.27 105.21
  Q 54.04 111.06 60.02 115.23
  Q 60.54 115.59 60.82 115.03
  Q 62.05 112.50 63.32 109.91
  C 65.66 105.15 72.08 108.28 69.47 113.25
  Q 68.16 115.74 66.96 118.20
  Q 66.73 118.67 67.19 118.89
  Q 74.12 122.24 81.62 122.54
  Q 82.32 122.57 82.29 121.86
  Q 82.10 117.37 82.37 113.62
  Q 82.56 110.98 85.20 110.98
  L 85.62 110.98
  Q 89.25 110.99 89.24 114.62
  L 89.21 120.30
  Q 89.21 120.97 89.87 120.87
  Q 97.50 119.74 104.18 116.61
  Q 104.71 116.36 104.37 115.88
  L 101.11 111.29
  Q 99.17 108.56 102.14 107.01
  Z"
/>
<path class="ico-fill" d="
  M 88.22 66.07
  Q 93.40 67.65 95.22 72.35
  Q 95.42 72.85 95.96 72.87
  Q 100.97 73.01 105.92 72.97
  C 111.05 72.93 111.94 80.61 106.65 80.67
  Q 101.54 80.74 96.15 80.63
  Q 95.57 80.61 95.43 81.18
  Q 94.63 84.51 91.27 86.84
  C 83.70 92.10 75.41 87.70 73.28 79.42
  C 72.04 74.59 75.51 68.87 80.15 67.06
  A 0.81 0.80 -13.0 0 0 80.66 66.26
  L 79.85 52.15
  Q 79.67 49.05 82.78 48.93
  Q 83.63 48.90 84.48 49.08
  Q 86.77 49.56 86.89 51.90
  L 87.61 65.28
  Q 87.64 65.89 88.22 66.07
  Z
  M 87.2193 81.6241
  A 4.68 4.34 59.3 0 0 88.5618 75.3842
  A 4.68 4.34 59.3 0 0 82.4407 73.5759
  A 4.68 4.34 59.3 0 0 81.0982 79.8158
  A 4.68 4.34 59.3 0 0 87.2193 81.6241
  Z"
/>
<path class="ico-fill" d="
  M 421.56 103.77
  C 431.07 121.23 425.71 141.23 410.12 153.23
  Q 409.55 153.67 409.14 153.08
  Q 386.96 121.46 366.32 89.84
  A 0.62 0.62 0.0 0 1 366.49 89.00
  C 382.38 78.15 404.22 81.06 416.91 95.70
  Q 417.36 96.22 417.91 95.80
  Q 429.78 86.65 440.72 78.31
  C 443.47 76.20 445.68 79.04 446.66 81.26
  Q 460.85 113.44 475.04 145.71
  A 3.41 3.40 50.6 0 1 474.72 149.01
  L 423.90 222.16
  A 0.48 0.47 -60.7 0 0 424.09 222.86
  L 446.78 233.09
  Q 447.72 233.52 446.69 233.52
  L 394.08 233.52
  Q 393.33 233.52 393.87 232.99
  L 409.24 217.60
  Q 409.63 217.21 410.12 217.46
  L 415.30 220.04
  Q 415.82 220.30 416.15 219.82
  L 466.13 147.55
  A 0.35 0.34 51.0 0 0 466.16 147.23
  L 440.83 88.89
  A 0.39 0.39 0.0 0 0 440.24 88.74
  L 421.77 102.80
  Q 421.25 103.19 421.56 103.77
  Z"
/>
<path class="ico-fill" d="
  M 271.53 143.52
  L 261.31 143.52
  Q 260.64 143.52 260.61 144.19
  L 259.92 157.72
  Q 259.89 158.21 259.40 158.21
  Q 239.70 158.35 220.81 158.19
  C 213.09 158.12 209.31 162.08 209.51 169.72
  Q 210.27 198.93 211.57 225.38
  Q 211.75 229.01 212.36 233.05
  Q 212.43 233.52 211.95 233.52
  L 175.99 233.52
  Q 175.46 233.52 175.14 233.09
  Q 171.34 227.98 172.20 221.76
  Q 174.85 202.60 180.60 185.12
  Q 188.00 162.64 203.74 145.67
  C 226.53 121.10 258.85 100.46 292.84 117.53
  C 303.22 122.74 313.08 130.85 321.90 139.08
  Q 344.61 160.27 353.50 191.50
  Q 357.98 207.24 360.11 222.91
  Q 360.88 228.58 357.22 233.07
  Q 356.85 233.52 356.26 233.52
  L 321.20 233.52
  Q 320.62 233.52 320.72 232.94
  Q 321.41 229.19 321.58 225.55
  Q 322.76 200.35 323.45 168.49
  C 323.59 162.29 319.65 158.24 313.13 158.25
  Q 297.10 158.26 273.61 158.26
  Q 273.07 158.26 273.04 157.71
  L 272.33 144.28
  Q 272.29 143.52 271.53 143.52
  Z
  M 258.13 123.90
  Q 257.70 124.05 257.84 124.47
  L 261.39 135.26
  Q 261.55 135.74 262.05 135.74
  L 271.77 135.75
  Q 272.46 135.75 272.68 135.09
  L 276.07 124.82
  Q 276.28 124.18 275.64 123.95
  Q 267.11 120.89 258.13 123.90
  Z"
/>
<path class="ico-fill" d="
  M 389.06 138.14
  C 375.27 141.16 364.11 126.34 372.81 114.48
  A 0.40 0.40 0.0 0 1 373.46 114.49
  L 389.21 137.76
  A 0.25 0.24 -23.7 0 1 389.06 138.14
  Z"
/>
<path class="ico-fill" d="
  M 140.93 179.22
  L 157.83 179.22
  A 0.42 0.42 0.0 0 1 158.25 179.64
  L 158.25 183.47
  A 0.42 0.42 0.0 0 1 157.81 183.89
  L 155.56 183.81
  A 0.42 0.42 0.0 0 0 155.12 184.20
  L 153.63 205.19
  A 0.42 0.42 0.0 0 1 153.21 205.58
  L 121.42 205.59
  A 0.42 0.42 0.0 0 1 121.00 205.20
  L 119.49 184.21
  A 0.42 0.42 0.0 0 0 119.06 183.82
  L 117.58 183.85
  A 0.42 0.42 0.0 0 1 117.15 183.43
  L 117.15 179.64
  A 0.42 0.42 0.0 0 1 117.57 179.22
  L 135.41 179.22
  A 0.42 0.42 0.0 0 0 135.82 178.87
  L 138.81 162.40
  A 0.42 0.42 0.0 0 1 139.08 162.08
  L 155.52 156.09
  A 0.42 0.42 0.0 0 1 156.07 156.35
  L 157.35 160.21
  A 0.42 0.42 0.0 0 1 157.08 160.74
  L 143.73 165.20
  A 0.42 0.42 0.0 0 0 143.45 165.51
  L 140.52 178.71
  A 0.42 0.42 0.0 0 0 140.93 179.22
  Z"
/>
<path class="ico-fill" d="
  M 312.31 233.51
  L 222.14 233.52
  A 3.43 3.43 0.0 0 1 218.71 230.22
  L 216.39 168.82
  A 3.43 3.43 0.0 0 1 219.81 165.26
  L 314.59 165.26
  A 3.43 3.43 0.0 0 1 318.02 168.82
  L 315.73 230.21
  A 3.43 3.43 0.0 0 1 312.31 233.51
  Z
  M 273.82 198.59
  A 6.96 6.96 0.0 0 0 266.86 191.63
  A 6.96 6.96 0.0 0 0 259.90 198.59
  A 6.96 6.96 0.0 0 0 266.86 205.55
  A 6.96 6.96 0.0 0 0 273.82 198.59
  Z"
/>
<path class="ico-fill" d="
  M 122.17 211.00
  L 153.22 211.00
  A 0.35 0.35 0.0 0 1 153.57 211.37
  L 152.06 233.19
  A 0.35 0.35 0.0 0 1 151.71 233.52
  L 123.68 233.52
  A 0.35 0.35 0.0 0 1 123.33 233.19
  L 121.82 211.37
  A 0.35 0.35 0.0 0 1 122.17 211.00
  Z"
/>
<rect class="ico-fill" x="7.75" y="241.25" width="496.50" height="43.48" rx="0.42"/>
<path class="ico-fill" d="
  M 340.44 300.24
  C 343.32 300.24 346.57 299.88 349.32 300.87
  C 355.11 302.94 356.70 308.55 355.95 314.34
  C 355.10 321.02 349.96 323.69 343.52 323.55
  Q 335.73 323.39 328.52 323.50
  A 0.36 0.35 90.0 0 0 328.17 323.86
  Q 328.15 383.00 328.16 443.17
  C 328.16 469.14 289.94 477.93 280.59 452.18
  Q 279.15 448.20 279.18 438.08
  Q 279.36 380.65 279.22 323.70
  Q 279.22 323.49 279.01 323.49
  L 270.97 323.48
  A 0.25 0.25 0.0 0 0 270.72 323.73
  Q 271.32 375.17 271.69 432.26
  Q 271.83 453.40 271.51 475.03
  A 0.90 0.90 0.0 0 0 271.99 475.84
  C 280.17 480.12 280.78 491.45 272.84 496.34
  Q 265.66 500.77 257.77 497.23
  C 253.22 495.19 250.12 490.32 250.68 485.26
  C 251.12 481.28 253.62 478.12 257.02 475.89
  Q 257.49 475.58 257.52 475.01
  Q 258.84 444.91 258.85 428.61
  Q 258.90 376.86 259.06 323.75
  Q 259.06 323.48 258.80 323.48
  L 251.54 323.48
  Q 251.37 323.48 251.37 323.66
  Q 251.23 381.56 251.41 440.27
  Q 251.44 448.45 249.95 452.43
  C 244.89 465.95 228.78 472.09 216.17 464.43
  Q 204.78 457.50 204.78 443.22
  Q 204.79 381.90 204.78 324.06
  Q 204.78 323.48 204.21 323.48
  Q 197.36 323.43 188.90 323.53
  C 181.90 323.61 177.18 320.11 176.82 312.81
  Q 176.38 303.71 183.66 300.88
  C 185.98 299.97 188.55 300.21 191.03 300.26
  Q 191.60 300.27 191.60 299.70
  L 191.61 292.14
  A 0.50 0.50 0.0 0 1 192.11 291.64
  L 339.21 291.66
  Q 339.77 291.66 339.77 292.21
  L 339.76 299.57
  Q 339.76 300.24 340.44 300.24
  Z"
/>
<rect class="ico-fill" x="40.32" y="292.48" width="15.52" height="205.54" rx="0.39"/>
<rect class="ico-fill" x="448.40" y="292.48" width="15.52" height="205.54" rx="0.33"/>
<path class="ico-fill" d="
  M 402.71 404.32
  L 406.42 379.87
  A 0.55 0.55 0.0 0 1 407.04 379.41
  L 426.12 382.34
  A 0.55 0.55 0.0 0 1 426.57 382.97
  L 422.87 404.49
  A 0.55 0.55 0.0 0 1 422.33 404.95
  L 403.25 404.95
  A 0.55 0.55 0.0 0 1 402.71 404.32
  Z"
/>
<path class="ico-fill" d="
  M 359.08 404.67
  L 353.12 388.28
  A 0.42 0.42 0.0 0 1 353.35 387.75
  L 371.19 380.31
  A 0.42 0.42 0.0 0 1 371.74 380.55
  L 380.69 404.38
  A 0.42 0.42 0.0 0 1 380.29 404.95
  L 359.47 404.95
  A 0.42 0.42 0.0 0 1 359.08 404.67
  Z"
/>
<path class="ico-fill" d="
  M 381.61 404.62
  L 377.88 387.53
  A 0.42 0.42 0.0 0 1 378.21 387.03
  L 396.78 383.31
  A 0.42 0.42 0.0 0 1 397.28 383.63
  L 401.74 404.44
  A 0.42 0.42 0.0 0 1 401.33 404.95
  L 382.02 404.95
  A 0.42 0.42 0.0 0 1 381.61 404.62
  Z"
/>
<path class="ico-fill" d="
  M 363.03 486.07
  L 359.20 410.80
  A 0.36 0.36 0.0 0 1 359.56 410.42
  L 424.73 410.42
  A 0.36 0.36 0.0 0 1 425.09 410.80
  L 421.26 486.07
  A 0.36 0.36 0.0 0 1 420.90 486.41
  L 363.39 486.41
  A 0.36 0.36 0.0 0 1 363.03 486.07
  Z"
/>
<path class="ico-fill" d="
  M 202.09 475.82
  C 210.93 481.62 209.09 492.60 199.86 496.58
  C 192.77 499.64 183.70 497.63 180.32 490.41
  C 176.66 482.58 182.57 474.88 190.40 473.29
  Q 190.95 473.18 191.22 472.69
  Q 195.37 465.23 201.31 458.80
  A 0.36 0.36 0.0 0 1 201.89 458.87
  Q 204.15 463.02 207.50 466.55
  Q 207.94 467.02 207.49 467.47
  C 205.33 469.63 203.11 472.26 201.87 475.10
  A 0.59 0.58 -62.7 0 0 202.09 475.82
  Z"
/>
<path class="ico-fill" d="
  M 329.34 474.85
  L 324.67 468.25
  Q 324.30 467.72 324.80 467.32
  Q 328.74 464.12 330.99 459.64
  A 0.36 0.36 0.0 0 1 331.56 459.54
  Q 338.02 465.39 341.12 472.69
  Q 341.32 473.17 341.81 473.31
  C 346.99 474.83 351.56 477.62 351.60 483.34
  Q 351.67 491.86 345.63 495.70
  C 338.07 500.50 326.10 497.58 323.85 488.22
  C 322.76 483.69 324.77 478.55 329.11 475.95
  Q 329.81 475.52 329.34 474.85
  Z"
/>
</svg>
